<?xml version="1.0" standalone="yes"?>

<svg version="1.1" viewBox="0.0 0.0 960.0 720.0" fill="none" stroke="none" stroke-linecap="square" stroke-miterlimit="10" xmlns="http://www.w3.org/2000/svg" xmlns:xlink="http://www.w3.org/1999/xlink"><clipPath id="p.0"><path d="m0 0l960.0 0l0 720.0l-960.0 0l0 -720.0z" clip-rule="nonzero"></path></clipPath><g clip-path="url(#p.0)"><path fill="#000000" fill-opacity="0.0" d="m0 0l960.0 0l0 720.0l-960.0 0z" fill-rule="nonzero"></path><path fill="#000000" fill-opacity="0.0" d="m50.897636 198.20473l858.2047 0l0 323.59058l-858.2047 0z" fill-rule="nonzero"></path><path fill="#ffffff" d="m317.32272 375.37497q-2.390625 3.734375 -3.46875 5.875q-1.0625 2.125 -1.0625 4.125q0 2.0 -14.015625 27.234375q-14.015625 25.234375 -21.765625 35.125q-7.734375 9.875 -16.6875 16.140625q-8.9375 6.28125 -12.40625 6.28125q-7.75 0.53125 -10.15625 -5.875q-4.796875 -4.8125 -5.859375 -10.953125q-3.21875 -33.640625 4.265625 -68.34375q3.46875 -15.765625 5.734375 -24.171875q2.28125 -8.40625 1.34375 -8.40625q-0.9375 0 -4.140625 6.015625q-3.203125 6.0 -7.75 15.34375q-14.671875 30.703125 -33.375 62.203125q-1.328125 1.609375 -8.546875 12.15625q-7.203125 10.546875 -11.734375 14.546875q-12.015625 11.484375 -21.359375 3.203125q-4.546875 -5.34375 -2.9375 -12.015625q-0.8125 -6.671875 1.453125 -27.359375q2.28125 -20.703125 4.40625 -34.171875q2.140625 -13.484375 7.484375 -38.453125q5.34375 -24.96875 6.9375 -32.984375q1.875 -4.0 4.546875 -13.734375q2.671875 -9.75 2.9375 -11.09375q0 -5.328125 2.53125 -7.59375q2.53125 -2.28125 5.609375 -1.609375q3.078125 0.65625 4.9375 3.328125q7.75 8.28125 1.875 22.4375q-12.015625 29.359375 -19.234375 77.421875q-8.53125 51.265625 -6.265625 51.9375q2.265625 0.671875 6.0 -3.203125q3.75 -3.875 6.6875 -10.28125q15.75 -26.171875 37.640625 -67.8125q21.890625 -41.65625 23.21875 -43.921875q1.34375 -2.28125 3.46875 -6.140625q2.140625 -3.875 3.46875 -6.28125q1.34375 -2.40625 3.078125 -5.34375q1.734375 -2.9375 2.796875 -4.671875q1.078125 -1.734375 2.15625 -3.328125q2.65625 -3.75 3.734375 -4.015625q8.8125 0.53125 12.546875 9.078125q0.796875 2.9375 -0.796875 6.671875q-3.75 10.15625 -7.21875 24.296875q-5.0625 13.359375 -6.671875 21.640625q-1.59375 8.265625 -5.875 27.234375q-8.28125 38.96875 -8.421875 53.125q-0.125 14.15625 1.75 18.953125q0.53125 2.40625 3.203125 2.8125q2.671875 0.390625 4.8125 -2.0q13.609375 -17.625 26.828125 -42.1875q13.21875 -24.5625 35.640625 -77.703125q11.484375 -33.109375 14.15625 -36.84375q6.40625 -9.078125 13.078125 -3.734375q2.9375 2.9375 2.671875 8.8125q-2.671875 9.34375 -12.421875 34.84375q-9.734375 25.5 -13.078125 32.578125q-3.34375 7.0625 -5.75 10.8125zm63.039307 14.6875q4.546875 -1.875 9.21875 -6.6875q4.671875 -4.8125 4.671875 -8.40625q0 -3.609375 -3.75 -5.875q-3.734375 -2.265625 -8.8125 -0.9375q-5.0625 1.328125 -10.40625 6.140625q-5.34375 4.8125 -8.8125 9.484375q-3.46875 4.671875 -2.671875 5.46875q1.078125 2.140625 8.546875 2.40625q7.484375 0.265625 12.015625 -1.59375zm-0.40625 43.109375q0.671875 -0.40625 0.796875 -0.40625q0.140625 0 0.546875 -0.265625q0.40625 -0.265625 0.40625 -0.53125q1.859375 -1.59375 4.65625 -4.390625q2.8125 -2.8125 4.140625 -2.8125q1.34375 0 2.8125 1.34375q1.46875 1.328125 2.0 1.59375q4.28125 0 -1.203125 6.9375q-5.46875 6.9375 -13.484375 12.015625q-8.546875 7.46875 -20.15625 5.46875q-11.609375 -2.0 -18.546875 -11.609375q-8.28125 -10.421875 -6.140625 -33.375q1.0625 -14.953125 12.8125 -30.5625q11.75 -15.625 24.828125 -20.703125q3.734375 -2.40625 6.9375 -2.53125q3.203125 -0.140625 10.8125 0.9375q7.609375 1.0625 11.890625 6.40625q6.671875 6.671875 6.671875 15.484375q-1.0625 6.40625 -8.28125 14.6875q-7.203125 8.265625 -17.359375 13.34375q-14.9375 4.53125 -24.296875 -1.875q-4.796875 -1.859375 -6.53125 0.8125q-1.734375 2.65625 -3.078125 13.34375q-2.125 18.421875 8.8125 20.296875q1.078125 0.265625 3.203125 0.671875q2.140625 0.390625 2.796875 0.53125q0.671875 0.125 2.265625 0.265625q1.609375 0.125 2.6875 -0.140625q2.125 -0.53125 4.125 -1.734375q2.015625 -1.203125 3.078125 -1.734375q2.140625 -1.0625 2.796875 -1.46875zm61.97577 -68.21875l2.9375 -9.078125q1.328125 -1.0625 4.9375 -11.609375q3.609375 -10.546875 6.8125 -17.5q9.609375 -21.359375 13.34375 -31.765625q1.609375 -2.40625 3.46875 -5.609375q3.75 -6.9375 5.078125 -7.46875q2.140625 -0.546875 5.46875 0.796875q3.34375 1.328125 5.078125 4.0q1.734375 2.671875 0.9375 5.078125q-0.796875 2.40625 -10.546875 22.96875q-9.75 20.546875 -14.828125 33.640625q-5.0625 13.078125 -9.078125 24.828125q-4.0 11.75 -5.328125 15.21875l-1.34375 5.875l6.671875 -6.40625q3.203125 -2.40625 10.140625 -8.546875q6.953125 -6.140625 8.6875 -7.203125q1.734375 -1.078125 7.875 -3.75q10.421875 -4.53125 20.296875 -4.53125q9.8749695 0 16.546844 11.203125q6.40625 12.015625 -1.859375 25.90625q-4.015625 2.9375 -4.28125 6.140625q-0.265625 3.203125 -13.6093445 17.890625q-6.9375 7.203125 -18.296875 14.421875q-11.34375 7.203125 -15.625 8.671875q-4.265625 1.46875 -6.9375 2.0q-6.671875 0.796875 -8.53125 1.34375q-5.34375 -0.546875 -6.546875 -1.34375q-1.203125 -0.796875 -2.8125 -4.265625q-3.203125 -3.46875 -2.65625 -6.140625q3.203125 0 3.734375 -1.078125q0 -1.59375 5.0625 -1.0625q5.078125 0.53125 18.6875 -7.46875q13.625 -8.015625 27.25 -20.5625q9.875 -12.828125 12.40625 -18.6875q2.546875 -5.875 0.671875 -9.890625q-0.53125 -2.671875 -7.875 -1.859375q-7.34375 0.796875 -14.828125 5.875q-28.828125 17.875 -38.703125 40.046875l-1.34375 2.671875q0 1.0625 -3.078125 2.671875q-3.0625 1.59375 -5.1875 1.59375q-4.28125 -1.875 -5.078125 -5.875q-3.734375 -2.671875 -3.734375 -4.671875q0 -2.0 3.734375 -15.34375q2.140625 -10.15625 5.46875 -21.09375q3.34375 -10.953125 4.671875 -12.015625q2.140625 -3.75 2.140625 -8.015625zm187.27664 9.609375l0.546875 0q0.53125 -1.59375 3.203125 -29.09375q2.125 -20.5625 4.0 -49.671875q-2.671875 0 -12.6875 13.359375q-10.015625 13.34375 -17.75 28.5625q-7.203125 13.078125 -8.8125 13.078125q-1.875 1.875 -8.8125 14.421875q-6.9375 12.546875 -5.609375 13.625q9.890625 -2.140625 16.5625 -2.40625q16.015625 -3.734375 20.546875 -4.265625q4.546875 -0.546875 6.421875 0.53125q1.328125 1.859375 2.390625 1.859375zm23.765625 -81.4375q0.265625 1.609375 0.265625 4.546875q0 2.9375 -0.140625 5.875q-0.125 2.9375 -0.53125 7.484375q-0.390625 4.53125 -0.65625 7.875q-0.265625 3.328125 -0.8125 8.9375q-0.53125 5.609375 -0.796875 9.875q-0.265625 4.265625 -3.203125 32.3125q-5.875 57.671875 -4.53125 81.96875q0.265625 1.859375 0 4.796875q-0.265625 2.9375 -0.265625 3.203125q-2.40625 2.671875 -8.8125 1.0625q-6.40625 -1.59375 -7.21875 -5.328125q-1.328125 -1.0625 -1.328125 -2.265625q0 -1.203125 1.0625 -21.5l1.34375 -43.25l-3.46875 0.265625q-5.34375 0 -23.765625 2.140625q-18.421875 2.125 -22.96875 3.46875q-5.609375 0 -12.015625 11.484375q-1.59375 4.0 -4.140625 8.40625q-2.53125 4.40625 -2.53125 4.9375l-4.265625 5.078125q0 2.9375 -5.609375 14.953125q-5.078125 11.46875 -16.296875 28.5625l-4.265625 -3.203125q-4.265625 -2.140625 -5.078125 -4.671875q-0.796875 -2.53125 1.46875 -8.0q2.28125 -5.484375 7.21875 -14.953125q4.9375 -9.484375 13.875 -26.703125q8.953125 -17.234375 8.953125 -19.90625q-1.078125 -4.0 4.0 -6.40625q6.140625 -6.140625 10.140625 -13.078125q3.21875 -7.46875 28.046875 -49.65625q9.875 -17.625 25.359375 -38.453125q6.140625 -8.28125 10.671875 -8.140625q4.546875 0.125 10.953125 4.9375q8.28125 6.140625 9.34375 13.34375zm82.3302 92.125q-3.734375 -5.078125 -13.875 -1.609375q-17.890625 6.140625 -26.171875 24.296875q-8.015625 16.828125 -3.203125 18.6875q4.0 0 16.140625 -4.125q12.15625 -4.140625 18.421875 -9.484375q6.28125 -5.34375 9.359375 -12.546875q3.078125 -7.21875 -0.671875 -15.21875zm-70.75 72.359375l1.875 -9.625q1.328125 -7.203125 10.40625 -34.171875q9.078125 -26.96875 15.484375 -43.515625q5.609375 -13.09375 5.609375 -21.09375q0 -1.34375 2.9375 -4.546875q3.203125 -3.203125 8.546875 0.8125q0.796875 0.53125 2.265625 2.796875q1.46875 2.265625 1.859375 4.0q0.40625 1.734375 0.140625 7.609375q-0.265625 5.875 -4.53125 13.09375q21.890625 -9.078125 33.5 -2.53125q11.625 6.53125 11.625 22.8125q0 4.8125 -2.8125 11.625q-2.796875 6.796875 -5.46875 9.203125q-1.609375 0 -4.28125 5.609375q-3.46875 4.265625 -11.484375 8.953125q-8.0 4.671875 -11.203125 3.59375q-1.34375 0 -1.34375 1.609375q0 1.859375 -10.015625 4.40625q-10.0 2.53125 -14.8125 2.53125q-4.796875 0 -7.203125 -2.140625q-1.875 1.875 -1.875 4.140625q0 2.265625 -2.671875 10.015625q-2.65625 7.734375 -4.265625 7.734375q-1.609375 1.34375 0 2.9375q0 5.609375 -1.609375 8.28125q0 6.9375 -2.65625 12.8125q0 3.203125 -0.9375 6.265625q-0.9375 3.078125 -2.0 3.078125q-1.609375 0.546875 -1.75 7.484375q-0.125 6.9375 -2.53125 10.6719055q-2.40625 3.75 -5.609375 3.75q-0.265625 0 -1.203125 0.125q-0.921875 0.140625 -1.46875 -0.125q-5.859375 -1.34375 -2.921875 -15.7500305q2.921875 -11.21875 2.921875 -15.5l1.34375 -8.53125q2.9375 -4.8125 2.9375 -12.5625q0 -3.203125 3.203125 -5.859375zm171.54602 -72.359375q-3.734375 -5.078125 -13.875 -1.609375q-17.890625 6.140625 -26.171875 24.296875q-8.015625 16.828125 -3.203125 18.6875q4.0 0 16.140625 -4.125q12.15625 -4.140625 18.421875 -9.484375q6.28125 -5.34375 9.359375 -12.546875q3.078125 -7.21875 -0.671875 -15.21875zm-70.75 72.359375l1.875 -9.625q1.328125 -7.203125 10.40625 -34.171875q9.078125 -26.96875 15.484375 -43.515625q5.609375 -13.09375 5.609375 -21.09375q0 -1.34375 2.9375 -4.546875q3.203125 -3.203125 8.546875 0.8125q0.796875 0.53125 2.265625 2.796875q1.46875 2.265625 1.859375 4.0q0.40625 1.734375 0.140625 7.609375q-0.265625 5.875 -4.53125 13.09375q21.890625 -9.078125 33.5 -2.53125q11.625 6.53125 11.625 22.8125q0 4.8125 -2.8125 11.625q-2.796875 6.796875 -5.46875 9.203125q-1.609375 0 -4.28125 5.609375q-3.46875 4.265625 -11.484375 8.953125q-8.0 4.671875 -11.203125 3.59375q-1.34375 0 -1.34375 1.609375q0 1.859375 -10.015625 4.40625q-10.0 2.53125 -14.8125 2.53125q-4.796875 0 -7.203125 -2.140625q-1.875 1.875 -1.875 4.140625q0 2.265625 -2.671875 10.015625q-2.65625 7.734375 -4.265625 7.734375q-1.609375 1.34375 0 2.9375q0 5.609375 -1.609375 8.28125q0 6.9375 -2.65625 12.8125q0 3.203125 -0.9375 6.265625q-0.9375 3.078125 -2.0 3.078125q-1.609375 0.546875 -1.75 7.484375q-0.125 6.9375 -2.53125 10.6719055q-2.40625 3.75 -5.609375 3.75q-0.265625 0 -1.203125 0.125q-0.921875 0.140625 -1.46875 -0.125q-5.859375 -1.34375 -2.921875 -15.7500305q2.921875 -11.21875 2.921875 -15.5l1.34375 -8.53125q2.9375 -4.8125 2.9375 -12.5625q0 -3.203125 3.203125 -5.859375z" fill-rule="nonzero"></path></g></svg>

